PathFileType	4	(X/Y/Z)	Patient4_TMGait_0pt7_01_right_50.trc.trc
DataRate	CameraRate	NumFrames	NumMarkers	Units	OrigDataRate	OrigDataStartFrame	OrigNumFrames
86.956521739130	86.956521739130	5	33	mm	86.956521739130	53	       141
Frame#	Time	Sacral			L.Shoulder			Chest			R.Shoulder			Neck			R.ASIS			L.ASIS			R.Thigh.Superior			R.Thigh.Lateral			R.Thigh.Inferior			R.Patella			L.Thigh.Superior			L.Thigh.Lateral			L.Thigh.Inferior			L.Patella			L.Shank.Superior			L.Shank.Lateral			L.Shank.Inferior			R.Shank.Superior			R.Shank.Lateral			R.Shank.Inferior			R.Heel			R.Midfoot.Superior			R.Midfoot.Lateral			R.Toe			L.Heel			L.Midfoot.Lateral			L.Midfoot.Superior			L.Toe			L.Elbow			L.Wrist			R.Elbow			R.Wrist			
		X1	Y1	Z1	X2	Y2	Z2	X3	Y3	Z3	X4	Y4	Z4	X5	Y5	Z5	X6	Y6	Z6	X7	Y7	Z7	X8	Y8	Z8	X9	Y9	Z9	X10	Y10	Z10	X11	Y11	Z11	X12	Y12	Z12	X13	Y13	Z13	X14	Y14	Z14	X15	Y15	Z15	X16	Y16	Z16	X17	Y17	Z17	X18	Y18	Z18	X19	Y19	Z19	X20	Y20	Z20	X21	Y21	Z21	X22	Y22	Z22	X23	Y23	Z23	X24	Y24	Z24	X25	Y25	Z25	X26	Y26	Z26	X27	Y27	Z27	X28	Y28	Z28	X29	Y29	Z29	X30	Y30	Z30	X31	Y31	Z31	X32	Y32	Z32	X33	Y33	Z33	

53	58.148000000000	877.896064779923	1020.121903444884	543.141417167685	1082.323014258647	1428.307320021913	342.067049451768	1189.625142242901	1352.726255174516	498.116030810928	1126.204670304229	1443.054970658496	672.400607038019	1103.103463802176	1491.764173809980	492.894303474373	1103.853922025413	946.489949023434	655.991274700937	1082.819843621803	958.990822040214	381.855039452304	1131.996197882905	744.091028798368	632.155526468870	1040.985377759685	638.830592371865	685.666944457413	1118.871339068790	584.055699146254	608.973755755898	1114.767635781383	497.500387799444	613.839249262946	1169.527914527465	797.562457932907	398.654716421262	1130.667029576666	673.008822376859	310.944201303303	1244.929385359105	617.242289089979	359.989060834291	1266.428362408204	529.573591274625	346.838191279813	1206.951726951916	456.362199265088	341.521554003106	1068.823922336735	399.091080874159	299.445546608558	1075.626517945215	267.331242445089	348.616643402877	1087.638618122681	409.987079804440	615.779578570559	1012.128191101465	304.254740869406	668.592841143282	1061.333407595444	211.726984612902	604.912783713736	929.848867434272	45.901657048839	562.105209348317	1102.871644552867	98.184233186906	600.153096013953	1013.390682263152	37.207770852488	635.270794465931	1221.578510981991	43.438839132651	624.395739570797	897.447631621012	178.929439581160	393.656793067719	955.097360651859	143.469167299309	308.492717699207	1059.674503044446	162.311584522566	324.878583435077	1147.137391314129	60.884155329307	287.572952455485	999.531975127212	1079.073344955522	254.172191120276	1093.687292411923	835.403066854111	256.885183198279	1136.804697683536	1105.918708736400	822.621097171609	1297.586890003510	900.190782030299	798.159406012342	
54	58.159500000000	876.621690721099	1020.550707179631	543.822352098088	1081.389912835762	1428.008245452298	342.378337485048	1189.076749936933	1352.403562508547	498.121410242156	1126.483074940829	1442.811115842819	672.635446185898	1102.509632832061	1491.582136422879	493.251616093609	1102.486487116968	946.286330552854	656.193647794914	1080.919198081322	958.800734153079	382.132268899387	1128.230927221852	743.355187704517	631.484736748713	1036.688804117940	638.803345547548	685.789741546221	1113.500019708771	583.280347296499	608.791542794095	1108.470174545630	497.011528702834	613.694609706050	1168.521943322305	799.799341904867	399.220307645046	1132.212081315551	675.117366603491	310.606462732859	1246.676994191089	620.852069199925	360.423121870330	1270.102940095482	534.329971327203	346.821840484662	1213.745510589633	459.631480438691	340.907387174295	1078.765188965624	395.662232548606	298.292009406873	1092.475421840306	263.947241469748	346.698047358401	1081.086767647186	409.656411126734	615.627823335629	1005.170114249511	304.247895410415	668.612894397322	1053.844579959227	211.531445742204	604.788478099063	921.762471473612	45.864160302380	562.061780398867	1094.795421332377	98.161547903734	600.119617307451	1005.273985035166	37.224833995588	635.264500202220	1213.460377428664	43.316371930453	624.415071108422	919.263005629519	165.972742245707	391.350671415786	978.524657147946	134.168116629187	305.844831905503	1082.059014726150	158.321160460113	322.229603867697	1174.701899954197	61.872897624090	284.075168417805	993.428676150647	1079.785995066898	255.446927917069	1066.776507357896	829.042127804046	254.447791391844	1147.031641063789	1106.958902813998	823.517075602219	1318.638777649913	910.925622064049	794.655013946538	
55	58.171000000000	875.360882049431	1020.780512760499	544.337101571769	1080.546795416662	1427.533024443273	342.555531433411	1188.564889975528	1351.902086735300	498.033088981041	1126.702755162349	1442.368305160307	672.763518786434	1101.915757990196	1491.228075334139	493.504167603705	1101.150478375356	945.929270172597	656.282436520172	1079.162630702720	958.429230850998	382.272596279100	1124.618619390370	742.518062103924	630.754959009048	1032.539698668337	638.653234683514	685.819754103984	1108.286660245080	582.400465654049	608.528959257485	1102.315370088507	496.414117917302	613.437347503598	1167.294103466849	801.408436130469	399.793496714765	1133.366388494459	676.734261944168	310.276679055430	1247.747030382376	623.695941246182	361.097760351965	1272.954026627468	538.461007552488	347.056433740618	1219.863575151501	462.521345513729	340.434580055371	1088.630210034103	391.791448338760	297.014596055488	1109.441443821491	260.508797511455	344.680290181623	1074.653942801733	409.231893430230	615.376232475068	998.349229561712	304.147008212964	668.587596334955	1046.395798791785	211.238293620070	604.571034984491	913.672400464444	45.754579584949	562.010195309399	1086.682637554313	98.112046206736	600.043485229898	997.144862648024	37.228799249104	635.258269448259	1205.340886613315	43.192638957236	624.430608321043	941.889394330020	152.972553049839	388.616395734521	1002.736279466131	124.966943341013	302.926032931448	1104.840401610581	154.502194471858	319.528864697530	1202.551775825925	63.409707407576	280.808561425502	987.104459565888	1080.626570821515	256.247371663741	1040.231467341852	824.969158672226	252.143144369346	1156.727808759024	1108.121376949899	824.192526940009	1338.855793783396	922.882925631736	790.469111568908	
56	58.182500000000	874.136258622700	1020.823455673185	544.687560465669	1079.805054245349	1426.903350971409	342.592960662232	1188.096969860511	1351.227731646909	497.841825476990	1126.876936186832	1441.738638102286	672.778680426742	1101.353538549834	1490.717265691587	493.647324050723	1099.864760733547	945.450712848434	656.263662502645	1077.550438628147	957.875322171300	382.285530753119	1121.183827843266	741.589239578679	630.032569667873	1028.499195180257	638.398398655926	685.758414455747	1103.212309419825	581.422298160179	608.218863774410	1096.275354590164	495.720852533450	613.078469054170	1165.866112087492	802.394401313398	400.358529384880	1134.092115244249	677.840413364205	309.956357864081	1248.144334596437	625.751058946773	361.953460916130	1274.988287655679	541.940173711178	347.503221189211	1225.283462491774	465.029229929819	340.107862380073	1098.415758035598	387.575619897192	295.603689355735	1126.420455469995	257.156471331689	342.611713415686	1068.309575266462	408.732565648937	615.038299991048	991.635148389812	303.967956519481	668.521657390712	1038.970761698368	210.863308564740	604.270211002011	905.574654217584	45.582231571308	561.956661977771	1078.534427472035	98.038769930675	599.931676515555	989.003139216169	37.220891148380	635.252949905915	1197.219734678626	43.075476399490	624.447522335010	965.200731279517	140.178716988343	385.490942159525	1027.614469132726	116.104753335168	299.793978962681	1127.875755798454	151.046690081485	316.848996609934	1230.500490521533	65.688681898921	277.891181696698	980.506647520473	1081.649049158083	256.577494912356	1014.468757457839	823.013560319401	249.998645266786	1165.870282962448	1109.361816037634	824.626832690020	1358.079762163293	936.074680896496	785.618129432006	
57	58.194000000000	872.975283312666	1020.696906517973	544.877302652538	1079.170255139604	1426.148442572163	342.487808914493	1187.678195151064	1350.397120999748	497.539875652591	1127.017544948369	1440.943535867983	672.674993040270	1100.849169559871	1490.071560095628	493.676739418828	1098.650935971885	944.884443203565	656.141913071673	1076.080489556059	957.146280864260	382.174364126668	1117.937033964500	740.579720781328	629.369537963547	1024.522930272622	638.064570827282	685.608451786623	1098.242703029201	580.358800792389	607.887710965110	1090.311922614609	494.950108040748	612.627419260401	1164.260007538662	802.777773013218	400.886420214818	1134.348397419556	678.420551183385	309.640534251516	1247.884652206567	627.011874281838	362.909603269528	1276.224598224530	544.758357591970	348.110826351291	1229.992590606992	467.156530470482	339.926015103897	1108.101538262068	383.110212379843	294.059618358145	1143.287841353743	254.011581509359	340.550098419937	1062.010825584689	408.182905366463	614.627796565202	984.989362025286	303.732368440581	668.419424339635	1031.550394941378	210.429058548694	603.899117420904	897.465907672537	45.361958737914	561.904894845756	1070.354834133865	97.946701006011	599.792995320502	980.849833806144	37.203464681612	635.248881561307	1189.096813676334	42.971486936158	624.469162870219	989.025570718527	127.818944664039	382.042286818794	1052.995408632964	107.786446838924	296.529767282418	1150.993073302933	148.112811772180	314.268695229640	1258.336753446041	68.849198544743	275.434177344807	973.614762247587	1082.908172761564	256.454466387947	989.844086796226	822.929117636148	248.031401884794	1174.455599499471	1110.639023793142	824.790188374749	1376.156168128859	950.489262601507	780.129426840933	
